<?xml version="1.0" encoding="UTF-8" standalone="no"?>
<svg
   xmlns:dc="http://purl.org/dc/elements/1.1/"
   xmlns:cc="http://creativecommons.org/ns#"
   xmlns:rdf="http://www.w3.org/1999/02/22-rdf-syntax-ns#"
   xmlns:svg="http://www.w3.org/2000/svg"
   xmlns="http://www.w3.org/2000/svg"
   xmlns:sodipodi="http://sodipodi.sourceforge.net/DTD/sodipodi-0.dtd"
   xmlns:inkscape="http://www.inkscape.org/namespaces/inkscape"
   id="b368e7d6-7c4a-408c-9a35-0514749a7e1a"
   data-name="Layer 1"
   width="869.99994"
   height="520.13854"
   viewBox="0 0 869.99994 520.13854"
   version="1.1"
   sodipodi:docname="forgot_password.svg"
   inkscape:version="1.0.2 (e86c8708, 2021-01-15)">
  <metadata
     id="metadata1606">
    <rdf:RDF>
      <cc:Work
         rdf:about="">
        <dc:format>image/svg+xml</dc:format>
        <dc:type
           rdf:resource="http://purl.org/dc/dcmitype/StillImage" />
        <dc:title></dc:title>
      </cc:Work>
    </rdf:RDF>
  </metadata>
  <defs
     id="defs1604" />
  <sodipodi:namedview
     pagecolor="#ffffff"
     bordercolor="#666666"
     borderopacity="1"
     objecttolerance="10"
     gridtolerance="10"
     guidetolerance="10"
     inkscape:pageopacity="0"
     inkscape:pageshadow="2"
     inkscape:window-width="1440"
     inkscape:window-height="872"
     id="namedview1602"
     showgrid="false"
     inkscape:zoom="1.2597702"
     inkscape:cx="423.33659"
     inkscape:cy="204.50359"
     inkscape:window-x="0"
     inkscape:window-y="28"
     inkscape:window-maximized="0"
     inkscape:current-layer="b368e7d6-7c4a-408c-9a35-0514749a7e1a" />
  <path
     d="M831.09242,704.18737c-11.13833-9.4118-17.90393-24.27967-16.12965-38.75366s12.76358-27.78,27.01831-30.85364,30.50415,5.43465,34.83378,19.3594c2.3828-26.84637,5.12854-54.81757,19.40179-77.67976,12.92407-20.70115,35.3088-35.51364,59.5688-38.16357s49.80265,7.35859,64.93272,26.50671,18.83461,46.98549,8.2379,68.96911c-7.80623,16.19456-22.188,28.24676-37.2566,38.05184a240.45181,240.45181,0,0,1-164.45376,35.97709Z"
     transform="translate(-165.00003 -189.93073)"
     fill="#f2f2f2"
     id="path1551" />
  <path
     d="M996.72788,546.00953a393.41394,393.41394,0,0,0-54.82622,54.44229,394.561,394.561,0,0,0-61.752,103.194c-1.112,2.72484,3.31272,3.911,4.4123,1.21642A392.34209,392.34209,0,0,1,999.96343,549.24507c2.28437-1.86015-.97-5.08035-3.23555-3.23554Z"
     transform="translate(-165.00003 -189.93073)"
     fill="#fff"
     id="path1553" />
  <path
     d="M445.06712,701.63014c15.2985-12.92712,24.591-33.34815,22.15408-53.22817s-17.53079-38.15588-37.10966-42.37749-41.89745,7.46449-47.8442,26.59014c-3.27278-36.87349-7.04406-75.29195-26.64837-106.69317-17.75122-28.433-48.49666-48.778-81.81777-52.41768s-68.40395,10.107-89.18511,36.407-25.86934,64.53459-11.31476,94.72909c10.72185,22.24324,30.47528,38.79693,51.17195,52.26422,66.02954,42.9653,147.93912,60.88443,225.8773,49.41454"
     transform="translate(-165.00003 -189.93073)"
     fill="#f2f2f2"
     id="path1555" />
  <path
     d="M217.56676,484.37281a540.35491,540.35491,0,0,1,75.30383,74.77651A548.0761,548.0761,0,0,1,352.25665,647.04a545.835,545.835,0,0,1,25.43041,53.8463c1.52726,3.74257-4.55,5.37169-6.06031,1.67075a536.35952,536.35952,0,0,0-49.009-92.727A539.73411,539.73411,0,0,0,256.889,528.63168a538.44066,538.44066,0,0,0-43.76626-39.81484c-3.13759-2.55492,1.33232-6.97788,4.444-4.444Z"
     transform="translate(-165.00003 -189.93073)"
     fill="#fff"
     id="path1557" />
  <path
     d="M789.5,708.93073h-365v-374.5c0-79.67773,64.82227-144.5,144.49976-144.5h76.00049c79.67749,0,144.49975,64.82227,144.49975,144.5Z"
     transform="translate(-165.00003 -189.93073)"
     fill="#f2f2f2"
     id="path1559" />
  <path
     d="M713.5,708.93073h-289v-374.5a143.38177,143.38177,0,0,1,27.59571-84.94434c.66381-.90478,1.32592-1.79785,2.00878-2.68115a144.46633,144.46633,0,0,1,30.75415-29.85058c.65967-.48,1.322-.95166,1.99415-1.42334a144.15958,144.15958,0,0,1,31.47216-16.459c.66089-.25049,1.33374-.50146,2.00659-.74219a144.01979,144.01979,0,0,1,31.1084-7.33593c.65772-.08985,1.333-.16016,2.0083-.23047a146.28769,146.28769,0,0,1,31.10547,0c.67334.07031,1.34864.14062,2.01416.23144a143.995,143.995,0,0,1,31.10034,7.335c.6731.24073,1.346.4917,2.00879.74268a143.79947,143.79947,0,0,1,31.10645,16.21582c.67163.46143,1.344.93311,2.00635,1.40478a145.987,145.987,0,0,1,18.38354,15.564,144.305,144.305,0,0,1,12.72437,14.55078c.68066.88037,1.34277,1.77344,2.00537,2.67676A143.38227,143.38227,0,0,1,713.5,334.43073Z"
     transform="translate(-165.00003 -189.93073)"
     fill="#ccc"
     id="path1561" />
  <circle
     cx="524.99994"
     cy="335.5"
     r="16"
     fill="#6c63ff"
     id="circle1563" />
  <polygon
     points="594.599 507.783 582.339 507.783 576.506 460.495 594.601 460.496 594.599 507.783"
     fill="#ffb8b8"
     id="polygon1565" />
  <path
     d="M573.58165,504.27982h23.64384a0,0,0,0,1,0,0v14.88687a0,0,0,0,1,0,0H558.69478a0,0,0,0,1,0,0v0a14.88688,14.88688,0,0,1,14.88688-14.88688Z"
     fill="#2f2e41"
     id="path1567" />
  <polygon
     points="655.599 507.783 643.339 507.783 637.506 460.495 655.601 460.496 655.599 507.783"
     fill="#ffb8b8"
     id="polygon1569" />
  <path
     d="M634.58165,504.27982h23.64384a0,0,0,0,1,0,0v14.88687a0,0,0,0,1,0,0H619.69478a0,0,0,0,1,0,0v0a14.88688,14.88688,0,0,1,14.88688-14.88688Z"
     fill="#2f2e41"
     id="path1571" />
  <path
     d="M698.09758,528.60035a10.74272,10.74272,0,0,1,4.51052-15.84307l41.67577-114.86667L764.791,409.082,717.20624,518.85271a10.80091,10.80091,0,0,1-19.10866,9.74764Z"
     transform="translate(-165.00003 -189.93073)"
     fill="#ffb8b8"
     id="path1573" />
  <path
     d="M814.33644,550.1843a10.74269,10.74269,0,0,1-2.89305-16.21659L798.53263,412.4583l23.33776,1.06622L827.23606,533.045a10.80091,10.80091,0,0,1-12.89962,17.13934Z"
     transform="translate(-165.00003 -189.93073)"
     fill="#ffb8b8"
     id="path1575" />
  <circle
     cx="612.1058"
     cy="162.12254"
     r="24.56103"
     fill="#ffb8b8"
     id="circle1577" />
  <path
     d="M814.17958,522.54937H740.13271l.08911-.57617c.13306-.86133,13.19678-86.439,3.56177-114.436a11.813,11.813,0,0,1,6.06933-14.5835h.00025c13.77173-6.48535,40.20752-14.47119,62.52,4.90918a28.23448,28.23448,0,0,1,9.45947,23.396Z"
     transform="translate(-165.00003 -189.93073)"
     fill="#6c63ff"
     id="path1579" />
  <path
     d="M754.35439,448.1812,721.01772,441.418l15.62622-37.02978a13.99723,13.99723,0,0,1,27.10571,6.99755Z"
     transform="translate(-165.00003 -189.93073)"
     fill="#6c63ff"
     id="path1581" />
  <path
     d="M797.05043,460.73882l-2.00415-45.94141c-1.51977-8.63623,3.42408-16.80029,11.02735-18.13476,7.60547-1.32959,15.03174,4.66016,16.55835,13.35986l7.533,42.92774Z"
     transform="translate(-165.00003 -189.93073)"
     fill="#6c63ff"
     id="path1583" />
  <path
     d="M811.71606,517.04933c11.91455,45.37671,13.21436,103.0694,10,166l-16-2-29-120-16,122-18-1c-5.37744-66.02972-10.61328-122.71527-2-160Z"
     transform="translate(-165.00003 -189.93073)"
     fill="#2f2e41"
     id="path1585" />
  <path
     d="M793.2891,371.03474c-4.582,4.88079-13.09131,2.26067-13.68835-4.40717a8.05467,8.05467,0,0,1,.01014-1.55569c.30826-2.95357,2.01461-5.63506,1.60587-8.7536a4.59046,4.59046,0,0,0-.84011-2.14892c-3.65124-4.88933-12.22227,2.18687-15.6682-2.23929-2.113-2.714.3708-6.98713-1.25065-10.02051-2.14006-4.00358-8.47881-2.0286-12.45388-4.22116-4.42275-2.43948-4.15822-9.22524-1.24686-13.35269,3.55052-5.03359,9.77572-7.71951,15.92336-8.10661s12.25292,1.27475,17.99229,3.51145c6.52109,2.54134,12.98768,6.05351,17.00067,11.78753,4.88021,6.97317,5.34986,16.34793,2.90917,24.50174C802.09785,360.98987,797.03077,367.04906,793.2891,371.03474Z"
     transform="translate(-165.00003 -189.93073)"
     fill="#2f2e41"
     id="path1587" />
  <path
     d="M1004.98163,709.57417h-738.294a1.19069,1.19069,0,0,1,0-2.38137h738.294a1.19069,1.19069,0,0,1,0,2.38137Z"
     transform="translate(-165.00003 -189.93073)"
     fill="#3f3d56"
     id="path1589" />
  <path
     d="M634,600.43073H504a6.46539,6.46539,0,0,1-6.5-6.41531V303.846a6.46539,6.46539,0,0,1,6.5-6.41531H634a6.46539,6.46539,0,0,1,6.5,6.41531V594.01542A6.46539,6.46539,0,0,1,634,600.43073Z"
     transform="translate(-165.00003 -189.93073)"
     fill="#fff"
     id="path1591" />
  <rect
     x="332.49994"
     y="201.38965"
     width="143"
     height="2"
     fill="#ccc"
     id="rect1593" />
  <rect
     x="332.99994"
     y="315.5"
     width="143"
     height="2"
     fill="#ccc"
     id="rect1595" />
  <rect
     x="377.49994"
     y="107.5"
     width="2"
     height="304"
     fill="#ccc"
     id="rect1597" />
  <rect
     x="427.49994"
     y="107.5"
     width="2"
     height="304"
     fill="#ccc"
     id="rect1599" />
  <ellipse
     cx="601.21198"
     cy="92.105492"
     fill="#6c63ff"
     id="circle967"
     rx="8.1787357"
     ry="8.1664352"
     style="stroke-width:0.177665" />
  <path
     d="m 600.33588,6.8911301 c -12.78227,0.09015 -23.24825,10.4618899 -23.42983,23.2239829 -0.002,0.117826 -0.002,0.946327 -0.002,2.029931 a 6.000308,5.9912838 0 0 0 5.99962,5.990968 h 10e-6 a 6.0040006,5.9949711 0 0 0 6.00268,-6.000155 c -5.2e-4,-0.737129 -10e-4,-1.247306 -10e-4,-1.278628 a 11.379176,11.362063 0 1 1 17.51677,9.565275 l 0.002,0.0025 c 0,0 -8.53937,5.489186 -11.1428,13.01933 l 0.002,5.48e-4 a 16.71376,16.688623 0 0 0 -0.68871,4.752146 c 0,0.661375 0.039,6.44818 0.11426,11.144996 a 6.1849891,6.1756871 0 0 0 6.18562,6.075532 h 2e-5 a 6.1866585,6.1773543 0 0 0 6.18629,-6.215475 c -0.0262,-4.301424 -0.0403,-9.310034 -0.0403,-9.673568 0,-4.623752 4.46724,-9.23069 8.13672,-12.23499 4.22554,-3.45954 7.26626,-8.174053 8.48758,-13.492209 A 15.426126,15.402927 0 0 0 624.10918,30.45778 23.602764,23.567267 0 0 0 600.33591,6.8911241 Z"
     fill="#6c63ff"
     id="path989"
     style="stroke-width:0.177665" />
</svg>
